<svg xmlns="http://www.w3.org/2000/svg" width="30.624" height="36">
    <path fill="#BABABA" fill-rule="evenodd" d="M22 20h-2v-2h1v-2H2v2h1v2H1c-.552 0-1-.448-1-1V9c0-.967 4-2 11-2h1c6.937 0 11 1.01 11 2v10c0 .552-.448 1-1 1zm-2.5-10c-.829 0-1.5.671-1.5 1.5 0 .828.671 1.5 1.5 1.5.828 0 1.5-.672 1.5-1.5 0-.829-.672-1.5-1.5-1.5zM4 1c0-.552.448-1 1-1h13c.552 0 1 .448 1 1v5H4V1zm15 25c0 .552-.448 1-1 1H5c-.552 0-1-.448-1-1v-9h15v9zm-2-8H6v1h11v-1zm0 2H6v1h11v-1zm0 2H6v1h11v-1zm0 2H6v1h11v-1z"/>
</svg>
